<svg width="62" height="62" viewBox="0 0 62 62" fill="none" xmlns="http://www.w3.org/2000/svg">
<path d="M18.8789 54.5497C17.7887 54.5497 16.8699 54.1759 16.1224 53.4285C15.375 52.6811 15.0021 51.7631 15.0039 50.6747C15.0056 49.5862 15.3784 48.6674 16.1224 47.9182C16.8699 47.1725 17.7887 46.7997 18.8789 46.7997C19.969 46.7997 20.887 47.1725 21.6327 47.9182C22.3784 48.664 22.7521 49.5828 22.7539 50.6747C22.7556 51.7666 22.3819 52.6845 21.6327 53.4285C20.8835 54.1725 19.9656 54.5462 18.8789 54.5497ZM43.1209 54.5497C42.0324 54.5497 41.1145 54.1759 40.367 53.4285C39.6196 52.6811 39.2459 51.7631 39.2459 50.6747C39.2459 49.5862 39.6196 48.6674 40.367 47.9182C41.1145 47.1725 42.0324 46.7997 43.1209 46.7997C44.2093 46.7997 45.1281 47.1725 45.8773 47.9182C46.623 48.6657 46.9959 49.5845 46.9959 50.6747C46.9959 51.7631 46.623 52.6811 45.8773 53.4285C45.1298 54.1759 44.211 54.5497 43.1209 54.5497ZM15.1924 14.2083L22.0874 28.7163H39.2278C39.5257 28.7163 39.7901 28.6414 40.0209 28.4916C40.2534 28.3418 40.4523 28.1351 40.6176 27.8716L47.3756 15.6007C47.5737 15.2356 47.59 14.9127 47.4247 14.632C47.2576 14.3496 46.9761 14.2083 46.5799 14.2083H15.1924ZM13.9292 11.625H47.5642C48.6854 11.625 49.5292 12.0831 50.0959 12.9993C50.6642 13.9138 50.6943 14.8568 50.1863 15.8281L42.8031 29.2821C42.4294 29.9107 41.9437 30.4041 41.3461 30.7623C40.7485 31.1206 40.0915 31.2997 39.375 31.2997H20.9249L17.7861 37.0605C17.5209 37.4583 17.5123 37.8889 17.7603 38.3522C18.0083 38.8154 18.3811 39.0479 18.8789 39.0497H45.7042C46.0727 39.0497 46.3802 39.1728 46.6264 39.4191C46.8727 39.6654 46.9959 39.9728 46.9959 40.3413C46.9959 40.7099 46.8727 41.0164 46.6264 41.261C46.3802 41.5056 46.0727 41.6296 45.7042 41.633H18.8789C17.3719 41.633 16.2473 40.9975 15.505 39.7265C14.7627 38.4555 14.7447 37.1793 15.4508 35.898L19.3361 28.9747L9.83719 9.04167H6.45819C6.09136 9.04167 5.78394 8.91853 5.53594 8.67225C5.28794 8.42597 5.1648 8.11856 5.16652 7.75C5.16824 7.38145 5.29138 7.07403 5.53594 6.82775C5.78049 6.58147 6.08791 6.45833 6.45819 6.45833H10.1601C10.5666 6.45833 10.936 6.56253 11.2684 6.77092C11.599 6.97931 11.8556 7.27036 12.0382 7.64408L13.9292 11.625Z" fill="black"/>
</svg>
